<svg xmlns="http://www.w3.org/2000/svg" width="9.633" height="14.286" viewBox="0 0 9.633 14.286"><g transform="translate(0.932 0)"><g transform="translate(0)"><path d="M107.827.073a.016.016,0,0,0-.021-.009l-.7.163a11.811,11.811,0,0,1-4.655.129L100.371,0s-.009,0-.017.009a.032.032,0,0,0,0,.017l2.278,3.792a.393.393,0,0,1,.06.167c.129-.03.253-.06.382-.082l-.652-2.051s0,0,0-.009a.429.429,0,0,1,.819-.253l.708,2.222c.056,0,.116,0,.172,0,.082,0,.163,0,.244,0a.438.438,0,0,1,.013-.129l.352-1.4a.429.429,0,0,1,.519-.309.424.424,0,0,1,.309.519l-.356,1.4c0,.009,0,.013,0,.017.1.021.206.043.309.069a.4.4,0,0,1,.043-.1L107.832.086S107.832.082,107.827.073Z" transform="translate(-100.35)" fill="#7a7c7f"/></g></g><g transform="translate(0 4.342)"><path d="M72.723,112.836a4.351,4.351,0,0,0-3.386-3.917,4.506,4.506,0,0,0-.8-.119,4.409,4.409,0,0,0-4.724,4.036l-.359,5.9h9.633Zm-3.688-.949a2.021,2.021,0,0,1,.224.521h.518a.372.372,0,1,1,0,.744H69.26a1.558,1.558,0,0,1-.448.774,1.686,1.686,0,0,1-1.086.472l1.461,1.328a.363.363,0,0,1,.015.521.4.4,0,0,1-.549.019l-2.161-1.961a.359.359,0,0,1-.12-.275.37.37,0,0,1,.387-.353h.866a.919.919,0,0,0,.642-.264,1.2,1.2,0,0,0,.182-.257H66.759a.372.372,0,1,1,0-.744h1.689a.93.93,0,0,0-.823-.521h-.866a.372.372,0,1,1,0-.744h3.019a.372.372,0,1,1,0,.744v0Z" transform="translate(-63.45 -108.792)" fill="#7a7c7f"/></g></svg>