<svg xmlns="http://www.w3.org/2000/svg" width="124" height="9" viewBox="0 0 124 9"><g transform="translate(-20 -506)"><g transform="translate(-113 -888)"><path d="M9.189,5.126a.674.674,0,0,0-.374-1.149l-2.275-.33a.3.3,0,0,1-.224-.163L5.3,1.422a.674.674,0,0,0-1.208,0L3.075,3.483a.3.3,0,0,1-.224.163l-2.275.33A.674.674,0,0,0,.2,5.126l1.646,1.6a.3.3,0,0,1,.086.263L1.546,9.258a.66.66,0,0,0,.147.546.681.681,0,0,0,.83.164L4.558,8.9a.3.3,0,0,1,.277,0l2.034,1.07a.667.667,0,0,0,.313.078A.676.676,0,0,0,7.7,9.8a.659.659,0,0,0,.147-.546L7.458,6.993a.3.3,0,0,1,.086-.263Z" transform="translate(133.001 1392.953)" fill="#0f2453"/><path d="M9.189,5.126a.674.674,0,0,0-.374-1.149l-2.275-.33a.3.3,0,0,1-.224-.163L5.3,1.422a.674.674,0,0,0-1.208,0L3.075,3.483a.3.3,0,0,1-.224.163l-2.275.33A.674.674,0,0,0,.2,5.126l1.646,1.6a.3.3,0,0,1,.086.263L1.546,9.258a.66.66,0,0,0,.147.546.681.681,0,0,0,.83.164L4.558,8.9a.3.3,0,0,1,.277,0l2.034,1.07a.667.667,0,0,0,.313.078A.676.676,0,0,0,7.7,9.8a.659.659,0,0,0,.147-.546L7.458,6.993a.3.3,0,0,1,.086-.263Z" transform="translate(143.608 1392.953)" fill="#0f2453"/><path d="M9.189,5.126a.674.674,0,0,0-.374-1.149l-2.275-.33a.3.3,0,0,1-.224-.163L5.3,1.422a.674.674,0,0,0-1.208,0L3.075,3.483a.3.3,0,0,1-.224.163l-2.275.33A.674.674,0,0,0,.2,5.126l1.646,1.6a.3.3,0,0,1,.086.263L1.546,9.258a.66.66,0,0,0,.147.546.681.681,0,0,0,.83.164L4.558,8.9a.3.3,0,0,1,.277,0l2.034,1.07a.667.667,0,0,0,.313.078A.676.676,0,0,0,7.7,9.8a.659.659,0,0,0,.147-.546L7.458,6.993a.3.3,0,0,1,.086-.263Z" transform="translate(154.214 1392.953)" fill="#0f2453"/><path d="M9.189,5.126a.674.674,0,0,0-.374-1.149l-2.275-.33a.3.3,0,0,1-.224-.163L5.3,1.422a.674.674,0,0,0-1.208,0L3.075,3.483a.3.3,0,0,1-.224.163l-2.275.33A.674.674,0,0,0,.2,5.126l1.646,1.6a.3.3,0,0,1,.086.263L1.546,9.258a.66.66,0,0,0,.147.546.681.681,0,0,0,.83.164L4.558,8.9a.3.3,0,0,1,.277,0l2.034,1.07a.667.667,0,0,0,.313.078A.676.676,0,0,0,7.7,9.8a.659.659,0,0,0,.147-.546L7.458,6.993a.3.3,0,0,1,.086-.263Z" transform="translate(164.821 1392.953)" fill="#0f2453"/><path d="M9.189,5.126a.674.674,0,0,0-.374-1.149l-2.275-.33a.3.3,0,0,1-.224-.163L5.3,1.422a.674.674,0,0,0-1.208,0L3.075,3.483a.3.3,0,0,1-.224.163l-2.275.33A.674.674,0,0,0,.2,5.126l1.646,1.6a.3.3,0,0,1,.086.263L1.546,9.258a.66.66,0,0,0,.147.546.681.681,0,0,0,.83.164L4.558,8.9a.3.3,0,0,1,.277,0l2.034,1.07a.667.667,0,0,0,.313.078A.676.676,0,0,0,7.7,9.8a.659.659,0,0,0,.147-.546L7.458,6.993a.3.3,0,0,1,.086-.263Z" transform="translate(175.428 1392.953)" fill="#0f2453"/><path d="M14.272,7.169A.674.674,0,0,0,13.9,6.019L11.51,5.672a20.28,20.28,0,0,0,1.178,3.044Z" transform="translate(170.345 1390.91)" fill="#b6bac2"/></g><text transform="translate(74 513)" fill="#717171" font-size="7.5" font-family="Roboto-Regular, Roboto" letter-spacing="0.01em" opacity="0.7"><tspan x="0" y="0">( 247 User Reviews )</tspan></text></g></svg>