<svg xmlns="http://www.w3.org/2000/svg" width="60" height="16" viewBox="0 0 60 16"><g transform="translate(-22 -398)"><g transform="translate(0 0.537)"><g transform="translate(22 397.463)"><path d="M215.413,366.647a1,1,0,1,1-1.414,0,1,1,0,0,1,1.414,0" transform="translate(-206.706 -354.354)" fill="#989898"/><path d="M215.413,61.352a1,1,0,1,1-1.414,0,1,1,0,0,1,1.414,0" transform="translate(-206.706 -59.059)" fill="#989898"/><path d="M62.766,214a1,1,0,1,1-1.414,0,1,1,0,0,1,1.414,0" transform="translate(-59.059 -206.706)" fill="#989898"/><path d="M1.707.293a1,1,0,1,1-1.414,0,1,1,0,0,1,1.414,0" transform="translate(3.05 11.534) rotate(-45)" fill="#989898"/><path d="M1.707.293a1,1,0,1,1-1.414,0,1,1,0,0,1,1.414,0" transform="translate(3.05 4.464) rotate(-45)" fill="#989898"/><path d="M14,6a2,2,0,0,0-2,2,1,1,0,0,1-2,0v-.25a1.006,1.006,0,0,1,.4-.8l.289-.216A3.294,3.294,0,0,0,12,4.111v-.1A4.016,4.016,0,0,0,8,0,8,8,0,0,0,6.4,15.847,8.273,8.273,0,0,0,7.983,16,8,8,0,0,0,16,8a2,2,0,0,0-2-2Zm-1.551,7.405a7.054,7.054,0,0,1-5.86,1.459A6.954,6.954,0,0,1,1.135,9.411a7.057,7.057,0,0,1,1.459-5.86A6.983,6.983,0,0,1,8,1a3.014,3.014,0,0,1,3,3.009v.1a2.291,2.291,0,0,1-.911,1.823L9.8,6.151a2.01,2.01,0,0,0-.8,1.6V8a2,2,0,1,0,4,0,1,1,0,1,1,2,0A6.984,6.984,0,0,1,12.449,13.406Z" transform="translate(0)" fill="#989898"/></g><text transform="translate(44 409.463)" fill="#989898" stroke="rgba(0,0,0,0)" stroke-width="1" font-size="9" font-family="Montserrat-SemiBold, Montserrat" font-weight="600"><tspan x="0" y="0">5 Colors</tspan></text></g></g></svg>